Coordinates
version=1
nRows=17
nColumns=34
inDegrees=yes

Units are S.I. units (second, meters, Newtons, ...)
If the header above contains a line with 'inDegrees', this indicates whether rotational values are in degrees (yes) or radians (no).

endheader
time	pelvis_tilt	pelvis_list	pelvis_rotation	pelvis_tx	pelvis_ty	pelvis_tz	hip_flexion_r	hip_adduction_r	hip_rotation_r	knee_angle_r	ankle_angle_r	subtalar_angle_r	mtp_angle_r	hip_flexion_l	hip_adduction_l	hip_rotation_l	knee_angle_l	ankle_angle_l	subtalar_angle_l	mtp_angle_l	lumbar_extension	lumbar_bending	lumbar_rotation	arm_flex_r	arm_add_r	arm_rot_r	elbow_flex_r	pro_sup_r	arm_flex_l	arm_add_l	arm_rot_l	elbow_flex_l	pro_sup_l
     12.93333330	    -15.14970662	      0.14087189	     -0.68330376	      0.07680781	      0.75204740	     -0.08406949	     53.61531976	     -7.56320197	      1.37414499	     63.91096238	     22.16661672	     -5.97496154	      0.00000000	     53.06180644	     -7.83995126	      0.78991458	     63.20763843	     24.21276169	     -3.92426565	      0.00000000	    -37.85087518	      0.12415752	     -0.22456815	     60.82338707	     13.05874696	     64.51998536	    129.18759348	    106.98660755	     74.89827447	     16.03780021	     71.07282702	    130.13577281	     94.55121565
     12.95000000	    -14.81657861	      0.26165942	     -0.51501321	      0.07759316	      0.74630714	     -0.08350612	     54.45403813	     -7.68959016	      1.82002816	     66.15302870	     23.12175750	     -6.33245321	      0.00000000	     53.82595671	     -7.81138066	      0.90668113	     65.27113910	     25.13487664	     -3.83423951	      0.00000000	    -38.90599317	     -0.06129564	     -0.22834590	     61.47577160	     12.86687092	     64.67849549	    129.01587741	    107.03584263	     75.42286321	     16.01302027	     71.10799551	    130.08239079	     94.61795670
     12.96666670	    -14.45470561	      0.45492937	     -0.43726365	      0.07400194	      0.73721432	     -0.08305961	     55.47285979	     -7.82813427	      2.30406572	     68.40881932	     23.95303463	     -6.38560764	      0.00000000	     54.93043773	     -7.94965873	      0.71442775	     67.70680291	     25.64343231	     -3.52595629	      0.00000000	    -39.96339314	     -0.34217300	     -0.25232251	     62.67733276	     12.71036530	     64.78262658	    128.87460333	    107.08330547	     76.41734067	     15.89567848	     70.99590796	    130.05502213	     94.69171078
     12.98333330	    -14.11596974	      0.63179051	     -0.33680374	      0.07211662	      0.72964444	     -0.08192716	     56.43353974	     -7.88648166	      2.84761938	     70.51943678	     24.79532599	     -6.19028506	      0.00000000	     56.03921848	     -8.12186797	      0.57166522	     70.01567931	     26.09443119	     -3.42309447	      0.00000000	    -40.99388048	     -0.59423221	     -0.24152586	     64.03798125	     12.53990044	     64.78264936	    128.69829271	    107.11594390	     77.32089826	     15.77365019	     70.95449251	    130.08020371	     94.77388725
     13.00000000	    -13.88340315	      0.82964863	     -0.49178022	      0.07200208	      0.72443609	     -0.08161779	     57.25913756	     -7.83395508	      3.29082699	     72.26717166	     25.74515543	     -5.99865689	      0.00000000	     56.89846147	     -8.33037694	      0.35049055	     71.82081782	     26.30412414	     -3.25559603	      0.00000000	    -41.92001768	     -0.83061256	     -0.13646842	     65.14580410	     12.45473318	     64.93535655	    128.45258773	    107.15333865	     78.29375174	     15.58392818	     70.84716408	    130.04103240	     94.85270688
     13.01666670	    -13.62419891	      1.17865272	     -0.80945463	      0.07207140	      0.71653540	     -0.07960512	     58.16694161	     -7.81398617	      3.86116247	     74.16456251	     26.99264081	     -4.96102374	      0.00000000	     57.50937639	     -8.71341698	     -0.07629198	     73.54172364	     27.37680258	     -2.45746379	      0.00000000	    -42.95131734	     -1.38229638	     -0.24843415	     66.23564600	     12.71393109	     65.95368619	    128.17617543	    107.27953313	     79.27925909	     15.43762808	     71.04835013	    130.18435960	     95.08873935
     13.03333330	    -13.66980615	      1.32320454	     -0.98856530	      0.07215752	      0.70758625	     -0.07812438	     59.37508578	     -7.66690786	      4.23213061	     76.18556512	     27.89834655	     -4.90878963	      0.00000000	     58.62761303	     -9.10547923	     -0.17679156	     75.54374367	     28.07364903	     -2.18179194	      0.00000000	    -43.55967025	     -1.67293685	     -0.28095578	     67.18929639	     12.88346514	     66.25156423	    128.01549981	    107.35575794	     79.92198180	     15.28590513	     71.12753056	    130.35850510	     95.27130733
     13.05000000	    -13.89381056	      1.43802232	     -1.16239415	      0.06700765	      0.69967657	     -0.07730884	     61.09987728	     -7.50201212	      4.58945774	     78.20478003	     28.29191430	     -4.83770847	      0.00000000	     60.14861736	     -9.46054731	     -0.09231972	     77.37514742	     28.52724076	     -1.81307568	      0.00000000	    -43.98918099	     -1.99712119	     -0.47722634	     68.04553290	     13.15961095	     66.53542504	    128.04105121	    107.44718251	     80.72208470	     15.06227385	     70.97039349	    130.45716108	     95.44908791
     13.06666670	    -14.31677575	      1.48093532	     -1.25693686	      0.06441429	      0.69141528	     -0.07515788	     62.91108044	     -7.28529234	      4.83977952	     80.04799288	     28.67592148	     -4.88748364	      0.00000000	     61.90628120	     -9.82985146	      0.13311438	     79.16091684	     28.88758520	     -1.42117533	      0.00000000	    -44.15076533	     -2.24195968	     -0.61109578	     69.09785264	     13.50468384	     66.77910668	    128.10904458	    107.53269644	     81.57442571	     14.98070314	     70.85829969	    130.55556956	     95.61519629
     13.08333330	    -14.98299607	      1.42423953	     -1.25023436	      0.06383599	      0.68402719	     -0.07474590	     64.65196082	     -7.08316173	      4.95284178	     81.57630086	     28.92330243	     -5.00724312	      0.00000000	     63.68464225	    -10.16580273	      0.44341200	     80.63113584	     29.45887749	     -0.81742974	      0.00000000	    -43.85543344	     -2.43376568	     -0.84807444	     69.77630389	     13.76887900	     66.95900333	    128.22178321	    107.67074374	     82.12513816	     14.87859079	     70.78048121	    130.68012149	     95.87057902
     13.10000000	    -15.18157256	      1.38421089	     -1.40425220	      0.06077679	      0.67680446	     -0.07470663	     65.94628618	     -6.87993662	      5.12529446	     83.05119734	     29.30520132	     -5.08663614	      0.00000000	     64.97934965	    -10.44684317	      0.72333254	     82.08953824	     30.12586219	     -0.69288904	      0.00000000	    -44.06316515	     -2.59510138	     -0.98141699	     70.89568658	     14.05707491	     66.46888692	    128.22449376	    107.68961222	     82.97867061	     14.81679960	     70.43682533	    130.58175625	     95.92600004
     13.11666670	    -15.31975974	      1.22820402	     -1.29367780	      0.06343011	      0.67034625	     -0.07264245	     67.03610530	     -6.82571905	      4.97549885	     84.60017497	     29.66521840	     -4.92596968	      0.00000000	     65.96953189	    -10.82414718	      0.98922158	     83.34994920	     30.90458903	      0.47674533	      0.00000000	    -43.93830591	     -2.65768206	     -1.20040340	     71.22893016	     14.48948713	     66.13386422	    128.37431365	    107.78606625	     83.38987893	     14.78520914	     70.45609225	    130.71940299	     96.11124146
     13.13333330	    -15.55193521	      1.15873487	     -1.36177463	      0.06379229	      0.66524156	     -0.07212229	     67.88926554	     -6.72850777	      4.87061754	     85.76702085	     30.11031606	     -4.92097806	      0.00000000	     66.81974494	    -11.17209013	      1.17521337	     84.46417142	     31.85497478	      1.28620804	      0.00000000	    -43.76614386	     -2.83373153	     -1.41426273	     71.53288047	     14.77311113	     65.73054278	    128.31502048	    107.91763836	     83.68825884	     14.83368836	     70.61530357	    130.77177673	     96.30840116
     13.15000000	    -15.34400415	      1.04229660	     -1.62935924	      0.06523734	      0.66098569	     -0.07163534	     68.12401825	     -6.54857744	      4.83081139	     86.75248998	     30.76788243	     -4.39182571	      0.00000000	     67.03103330	    -11.68244765	      1.30983131	     85.42669053	     32.28635491	      1.64381298	      0.00000000	    -43.78071663	     -3.01219449	     -1.47776616	     71.56978278	     15.00048887	     65.45989873	    128.31469175	    108.06005106	     83.67532860	     14.73486401	     70.68774164	    130.75784655	     96.46639582
     13.16666670	    -15.14990779	      0.97566094	     -1.60903390	      0.06377905	      0.65815694	     -0.07049634	     68.26768014	     -6.60719786	      4.65112152	     87.55101651	     31.03727719	     -4.40678138	      0.00000000	     67.22219002	    -11.85737533	      1.52576348	     86.22334757	     32.52835113	      1.79305496	      0.00000000	    -43.86398259	     -3.20546440	     -1.76634599	     71.62581024	     15.04930873	     65.24869361	    128.18961381	    108.12135366	     83.79243379	     14.91123751	     70.77988322	    130.76000218	     96.53288696
     13.18333330	    -14.79111315	      0.85737453	     -1.62866441	      0.06523311	      0.65501906	     -0.06989151	     68.20828764	     -6.66974249	      4.45382494	     88.28044069	     31.50381007	     -4.07298926	      0.00000000	     67.26638788	    -12.06819882	      1.76103620	     87.00380753	     32.96780150	      2.34232934	      0.00000000	    -43.95637487	     -3.21187120	     -1.90076290	     71.25759487	     15.20745811	     64.74381655	    128.16714016	    108.28650700	     83.66281145	     14.98358276	     71.14933788	    130.73066045	     96.69233571
     13.20000000	    -14.63346425	      0.82229442	     -1.74108873	      0.06342201	      0.65435095	     -0.06905653	     68.26558855	     -6.66242680	      4.30093529	     88.65807913	     31.52873296	     -4.02764127	      0.00000000	     67.40685327	    -12.22611718	      1.79838982	     87.49371611	     32.94952614	      2.27783260	      0.00000000	    -44.03171773	     -3.38852669	     -2.02009967	     71.24734064	     15.20103739	     64.72665694	    128.13825393	    108.30801022	     83.66095123	     15.07267513	     71.14457941	    130.78523108	     96.70641600
